<?xml version="1.0" encoding="UTF-8"?>
<svg xmlns="http://www.w3.org/2000/svg" xmlns:xlink="http://www.w3.org/1999/xlink" width="250px" height="250px" viewBox="0 0 250 250" version="1.1">
<g id="surface1">
<rect x="0" y="0" width="250" height="250" style="fill:rgb(100%,100%,100%);fill-opacity:1;stroke:none;"/>
<path style=" stroke:none;fill-rule:evenodd;fill:rgb(0%,0%,0%);fill-opacity:1;" d="M 17.539062 186.0625 L 20.324219 186.0625 L 20.324219 183.871094 L 17.539062 183.871094 Z M 29.273438 161.339844 L 32.027344 161.339844 L 32.027344 159.148438 L 29.273438 159.148438 Z M 27.144531 151.359375 L 29.398438 151.359375 L 29.398438 149.605469 L 27.144531 149.605469 Z M 27.488281 143.1875 L 30.242188 143.1875 L 30.242188 141 L 27.488281 141 Z M 52.242188 181.929688 L 54.996094 181.929688 L 54.996094 179.738281 L 52.242188 179.738281 Z M 64.292969 182.148438 L 67.042969 182.148438 L 67.042969 179.960938 L 64.292969 179.960938 Z M 77.433594 180.585938 L 81.535156 180.585938 L 81.535156 175.234375 L 77.433594 175.234375 Z M 61.539062 172.792969 L 69.925781 172.792969 L 69.925781 165.472656 L 61.539062 165.472656 Z M 57 148.757812 L 58.941406 148.757812 L 58.941406 147.226562 L 57 147.226562 Z M 48.707031 143.1875 L 58.660156 143.1875 L 58.660156 138.589844 L 48.707031 138.589844 Z M 41.761719 127.792969 L 43.605469 127.792969 L 43.605469 126.324219 L 41.761719 126.324219 Z M 40.570312 119.5625 L 43.324219 119.5625 L 43.324219 117.371094 L 40.570312 117.371094 Z M 86.570312 116.183594 L 88.386719 116.183594 L 88.386719 114.714844 L 86.570312 114.714844 Z M 98.996094 96.90625 L 100.9375 96.90625 L 100.9375 95.375 L 98.996094 95.375 Z M 86.695312 107.953125 L 89.449219 107.953125 L 89.449219 103.480469 L 86.695312 103.480469 Z M 103.09375 105.730469 L 105.566406 105.730469 L 105.566406 104.292969 L 103.09375 104.292969 Z M 134.542969 118 L 136.484375 118 L 136.484375 116.433594 L 134.542969 116.433594 Z M 133.792969 110.457031 L 135.734375 110.457031 L 135.734375 107.265625 L 133.792969 107.265625 Z M 149.097656 111.738281 L 159.707031 111.738281 L 159.707031 107.640625 L 149.097656 107.640625 Z M 154.007812 91.679688 L 158.609375 91.679688 L 158.609375 87.519531 L 154.007812 87.519531 Z M 165.996094 89.710938 L 167.964844 89.710938 L 167.964844 87.582031 L 165.996094 87.582031 Z M 161.394531 59.761719 L 164.929688 59.761719 L 164.929688 56.570312 L 161.394531 56.570312 Z M 157.105469 66.304688 L 159.707031 66.304688 L 159.707031 63.925781 L 157.105469 63.925781 Z M 165.679688 71.875 L 169.8125 71.875 L 169.8125 69.527344 L 165.679688 69.527344 Z M 176.664062 113.304688 L 179.605469 113.304688 L 179.605469 109.140625 L 176.664062 109.140625 Z M 188.179688 103.070312 L 190.6875 103.070312 L 190.6875 99.910156 L 188.179688 99.910156 Z M 229.644531 111.644531 L 233.429688 111.644531 L 233.429688 109.019531 L 229.644531 109.019531 Z M 229.488281 181.804688 L 232.242188 181.804688 L 232.242188 179.207031 L 229.488281 179.207031 Z M 220.570312 172.292969 L 225.542969 172.292969 L 225.542969 165.128906 L 220.570312 165.128906 Z M 154.574219 51.59375 L 169.375 51.59375 L 169.375 63.640625 L 174.664062 63.640625 L 174.664062 76.660156 L 180.171875 76.660156 L 180.171875 92.304688 C 180.171875 92.746094 180.296875 93.152344 180.574219 93.464844 C 180.859375 93.808594 181.199219 93.964844 181.609375 93.996094 L 195.691406 94.027344 L 195.691406 114.492188 L 224.636719 114.492188 L 224.636719 106.703125 L 238.8125 106.703125 L 238.96875 188.816406 L 212.179688 188.816406 L 212.179688 159.492188 L 229.078125 159.492188 L 229.171875 121.628906 L 66.136719 121.628906 L 66.042969 160.621094 L 88.824219 160.621094 L 88.824219 188.753906 L 11.03125 188.753906 L 11.03125 176.109375 L 16.757812 176.109375 L 16.757812 163.027344 L 21.324219 163.027344 L 21.324219 136.960938 L 31.183594 136.960938 L 31.183594 133.644531 L 34.125 133.644531 L 34.125 113.242188 L 52.398438 113.242188 L 52.398438 132.863281 L 61.128906 132.863281 L 61.128906 118.25 L 80.09375 118.25 L 80.09375 98.160156 L 86.855469 98.160156 L 86.855469 90.085938 L 108.476562 90.085938 L 108.476562 99.035156 L 110.449219 99.035156 L 110.449219 117.71875 L 127.066406 117.71875 L 127.066406 102.695312 L 148.3125 102.695312 L 148.3125 74.125 L 151.535156 74.125 L 151.535156 62.609375 L 154.574219 62.609375 Z M 79.03125 125.570312 C 80.929688 125.070312 82.90625 124.945312 84.851562 125.195312 C 86.695312 125.414062 88.261719 126.574219 89.167969 128.359375 L 93.425781 137.085938 C 93.613281 137.464844 93.957031 137.710938 94.332031 137.710938 C 94.734375 137.710938 95.09375 137.460938 95.242188 137.085938 L 99.496094 128.480469 C 100.5 126.476562 102.347656 125.195312 104.441406 125.101562 C 106.351562 125.007812 108.101562 125.382812 109.855469 126.230469 C 110.511719 126.539062 110.917969 127.292969 110.917969 128.078125 C 110.886719 128.890625 110.449219 129.574219 109.761719 129.859375 C 109.105469 130.140625 108.664062 130.796875 108.601562 131.578125 C 108.132812 137.589844 108.164062 143.0625 108.664062 149.074219 C 108.726562 149.730469 109.132812 150.292969 109.695312 150.511719 C 110.480469 150.855469 110.980469 151.761719 110.886719 152.667969 C 110.824219 153.609375 110.199219 154.390625 109.351562 154.550781 C 105.722656 155.328125 102.3125 155.328125 98.710938 154.550781 C 97.898438 154.359375 97.273438 153.609375 97.179688 152.703125 C 97.085938 151.792969 97.554688 150.886719 98.335938 150.542969 C 98.902344 150.261719 99.277344 149.664062 99.277344 148.976562 L 99.464844 142.6875 C 99.496094 142.3125 99.246094 141.9375 98.898438 141.84375 C 98.550781 141.777344 98.203125 141.957031 98.054688 142.28125 L 92.921875 153.578125 C 92.734375 153.921875 92.390625 154.171875 92.046875 154.140625 C 91.660156 154.140625 91.3125 153.90625 91.167969 153.546875 L 86.039062 141.78125 C 85.910156 141.457031 85.558594 141.285156 85.222656 141.375 C 84.910156 141.4375 84.660156 141.75 84.628906 142.125 L 84.535156 149.011719 C 84.503906 149.855469 85.003906 150.636719 85.757812 150.859375 C 86.476562 151.074219 86.976562 151.828125 86.976562 152.640625 C 87.007812 153.453125 86.507812 154.207031 85.789062 154.425781 C 83.128906 155.269531 80.53125 155.300781 77.839844 154.550781 C 77.058594 154.363281 76.496094 153.582031 76.496094 152.703125 C 76.496094 151.796875 77.058594 151.015625 77.839844 150.828125 C 78.496094 150.636719 79.027344 150.011719 79.121094 149.261719 C 79.804688 143.351562 79.972656 137.394531 79.621094 131.457031 C 79.558594 130.703125 79.027344 130.078125 78.371094 129.984375 C 77.683594 129.890625 77.121094 129.390625 76.898438 128.667969 C 76.664062 127.957031 76.816406 127.171875 77.304688 126.605469 C 77.808594 126.074219 78.371094 125.726562 79.03125 125.570312 Z M 123.375 141.25 C 123.8125 143.003906 124.4375 144.503906 125.3125 146.070312 C 125.816406 146.976562 126.441406 147.664062 127.253906 148.226562 C 127.847656 148.636719 128.503906 148.792969 129.195312 148.695312 C 129.882812 148.601562 130.476562 148.261719 130.949219 147.664062 C 131.386719 147.097656 131.667969 146.445312 131.730469 145.691406 C 131.796875 144.847656 131.785156 144 131.699219 143.160156 C 131.292969 139.902344 130.417969 137.027344 128.914062 134.210938 C 128.507812 133.519531 128.101562 132.925781 127.601562 132.332031 C 127.445312 132.175781 127.285156 132.019531 127.132812 131.925781 C 126.34375 131.371094 125.324219 131.265625 124.441406 131.644531 C 123.53125 132.050781 122.875 132.863281 122.625 133.867188 C 122.449219 134.644531 122.394531 135.449219 122.46875 136.246094 C 122.621094 137.996094 122.902344 139.558594 123.375 141.25 Z M 121.183594 126.136719 C 123.78125 125.039062 126.347656 124.664062 129.101562 124.976562 C 135.265625 125.699219 140.300781 130.953125 141.273438 137.710938 C 142.023438 142.46875 140.679688 147.195312 137.613281 150.605469 C 134.984375 153.421875 131.730469 155.046875 128.066406 155.296875 C 124.40625 155.550781 120.996094 154.390625 118.085938 151.949219 C 114.082031 148.695312 112.046875 143.4375 112.703125 138.027344 C 113.359375 132.613281 116.550781 128.105469 121.183594 126.136719 Z M 153.195312 152.921875 L 143.929688 131.203125 C 143.683594 130.703125 143.273438 130.359375 142.742188 130.296875 C 141.929688 130.203125 141.269531 129.546875 141.117188 128.667969 C 140.960938 127.792969 141.335938 126.886719 142.085938 126.480469 C 143.429688 125.699219 144.808594 125.226562 146.339844 125.070312 C 148.28125 124.851562 150.066406 124.851562 152.003906 125.132812 C 153.261719 125.308594 154.472656 125.722656 155.574219 126.355469 C 156.230469 126.699219 156.605469 127.449219 156.542969 128.265625 C 156.480469 129.046875 156.011719 129.703125 155.320312 129.953125 C 155.101562 130.039062 154.921875 130.207031 154.824219 130.421875 C 154.726562 130.652344 154.726562 130.914062 154.824219 131.140625 L 157.859375 138.433594 C 158.015625 138.746094 158.296875 138.96875 158.640625 138.96875 C 158.984375 138.949219 159.277344 138.726562 159.390625 138.402344 L 162.488281 130.828125 C 162.582031 130.578125 162.582031 130.300781 162.488281 130.046875 C 162.363281 129.765625 162.207031 129.574219 161.957031 129.515625 C 161.238281 129.234375 160.738281 128.511719 160.738281 127.667969 C 160.707031 126.855469 161.175781 126.074219 161.894531 125.792969 C 164.898438 124.507812 168.0625 124.601562 171 126.039062 C 171.753906 126.417969 172.160156 127.324219 171.972656 128.199219 C 171.785156 129.078125 171.035156 129.703125 170.21875 129.636719 C 169.570312 129.613281 168.980469 130.003906 168.75 130.609375 L 159.296875 152.855469 C 158.734375 154.171875 157.578125 155.015625 156.261719 155.046875 C 154.949219 155.050781 153.757812 154.238281 153.195312 152.921875 Z M 176.382812 126.195312 C 180.546875 124.726562 184.738281 124.726562 188.898438 126.195312 C 189.652344 126.480469 190.152344 127.261719 190.152344 128.136719 C 190.121094 129.015625 189.589844 129.765625 188.839844 130.015625 C 188.242188 130.203125 187.835938 130.765625 187.773438 131.453125 C 187.335938 137.273438 187.398438 142.65625 187.929688 148.476562 C 187.992188 149.226562 188.460938 149.855469 189.089844 150.042969 C 189.964844 150.324219 190.558594 151.261719 190.496094 152.292969 C 190.433594 153.078125 189.933594 153.734375 189.246094 153.953125 C 184.929688 155.390625 180.609375 155.390625 176.289062 153.984375 C 175.476562 153.703125 174.945312 152.855469 174.976562 151.917969 C 175.007812 150.976562 175.632812 150.195312 176.476562 150.007812 C 177.195312 149.855469 177.761719 149.164062 177.792969 148.351562 C 178.167969 142.785156 178.136719 137.203125 177.699219 131.640625 C 177.667969 130.855469 177.136719 130.203125 176.445312 130.011719 C 175.632812 129.824219 175.070312 128.980469 175.101562 128.074219 C 175.132812 127.199219 175.632812 126.449219 176.382812 126.195312 Z M 195.503906 125.289062 L 213.589844 125.289062 C 214.121094 125.320312 214.625 125.226562 215.125 125.039062 C 215.78125 124.757812 216.535156 124.945312 217.066406 125.507812 C 218.816406 127.386719 219.382812 130.296875 218.472656 132.800781 C 218.160156 133.613281 217.503906 134.144531 216.722656 134.210938 C 215.9375 134.238281 215.183594 133.769531 214.808594 133.019531 C 214.027344 131.328125 212.523438 130.265625 210.835938 130.109375 C 209.472656 129.964844 208.09375 130.007812 206.738281 130.234375 C 206.300781 130.328125 205.953125 130.738281 205.890625 131.207031 C 205.699219 132.910156 205.648438 134.625 205.738281 136.339844 C 205.738281 136.597656 205.839844 136.84375 206.019531 137.027344 C 206.164062 137.210938 206.378906 137.328125 206.613281 137.339844 C 207.238281 137.429688 207.804688 137.402344 208.429688 137.214844 C 208.804688 137.121094 209.085938 136.742188 209.117188 136.304688 C 209.136719 135.609375 209.222656 134.917969 209.367188 134.238281 C 209.492188 133.738281 209.773438 133.300781 210.210938 133.082031 C 210.621094 132.835938 211.132812 132.824219 211.554688 133.050781 C 212.464844 133.488281 213.089844 134.332031 213.308594 135.398438 C 213.78125 137.996094 213.808594 140.464844 213.308594 143.066406 C 213.191406 143.796875 212.960938 144.503906 212.621094 145.160156 C 212.308594 145.789062 211.804688 146.195312 211.179688 146.320312 C 210.75 146.410156 210.296875 146.292969 209.960938 146.007812 C 209.625 145.695312 209.414062 145.273438 209.367188 144.820312 C 209.339844 144.117188 209.210938 143.417969 208.992188 142.75 C 208.882812 142.285156 208.46875 141.949219 207.992188 141.9375 C 207.585938 141.9375 207.207031 141.9375 206.804688 142.003906 C 206.574219 142.027344 206.359375 142.136719 206.207031 142.3125 C 206.082031 142.5 205.996094 142.714844 205.957031 142.9375 C 205.863281 144.941406 205.957031 146.726562 206.269531 148.695312 C 206.363281 149.261719 206.769531 149.699219 207.269531 149.761719 C 208.773438 149.949219 210.117188 149.949219 211.621094 149.761719 C 212.5625 149.644531 213.453125 149.261719 214.1875 148.664062 C 215.09375 147.882812 215.753906 146.945312 216.222656 145.753906 C 216.597656 144.785156 217.566406 144.1875 218.535156 144.410156 C 219.476562 144.597656 220.195312 145.535156 220.226562 146.601562 C 220.269531 148.222656 219.996094 149.839844 219.414062 151.355469 C 218.910156 152.546875 218.351562 153.546875 217.601562 154.550781 C 217.160156 155.113281 216.441406 155.328125 215.816406 155.046875 C 215.089844 154.710938 214.300781 154.542969 213.5 154.550781 L 195.347656 154.550781 C 194.601562 154.550781 193.972656 153.921875 193.847656 153.109375 C 193.722656 152.292969 194.160156 151.480469 194.882812 151.199219 C 195.851562 150.824219 196.570312 149.855469 196.695312 148.695312 C 197.320312 142.65625 197.289062 137.054688 196.539062 131.015625 C 196.414062 130.011719 195.789062 129.167969 194.910156 128.855469 C 194.53125 128.699219 194.21875 128.410156 194.035156 128.042969 C 193.847656 127.667969 193.785156 127.226562 193.847656 126.789062 C 193.910156 126.351562 194.128906 126.007812 194.441406 125.726562 C 194.753906 125.449219 195.097656 125.289062 195.503906 125.289062 Z M 119.898438 163.214844 C 121.304688 165.15625 121.964844 167.503906 121.808594 169.976562 C 121.714844 171.667969 120.585938 173.078125 119.085938 173.421875 C 117.582031 173.730469 116.050781 172.886719 115.394531 171.351562 C 114.421875 169.164062 112.734375 167.597656 110.605469 166.878906 C 109.511719 166.535156 108.382812 166.691406 107.382812 167.316406 C 106.390625 167.988281 105.703125 169.023438 105.472656 170.195312 C 104.628906 173.984375 105.722656 177.894531 108.320312 180.523438 C 109.976562 182.183594 112.171875 182.871094 114.390625 182.496094 C 116.144531 182.148438 117.644531 181.308594 118.898438 179.898438 C 119.109375 179.6875 119.386719 179.554688 119.679688 179.523438 C 119.992188 179.523438 120.273438 179.617188 120.496094 179.804688 C 121.121094 180.308594 121.464844 181.085938 121.464844 181.933594 C 121.496094 184.089844 120.679688 186.066406 119.210938 187.472656 C 118.933594 187.746094 118.566406 187.910156 118.179688 187.941406 C 117.78125 187.960938 117.390625 188.078125 117.050781 188.289062 C 115.710938 189.15625 114.242188 189.808594 112.703125 190.226562 C 108.757812 191.351562 104.722656 190.574219 101.375 188.003906 C 98.027344 185.4375 95.960938 181.527344 95.554688 177.054688 C 95.113281 171.640625 97.273438 166.507812 101.28125 163.347656 C 105.320312 160.21875 110.449219 159.652344 114.925781 161.90625 C 115.652344 162.28125 116.515625 162.28125 117.242188 161.90625 C 117.679688 161.6875 118.179688 161.6875 118.585938 161.96875 C 119.085938 162.277344 119.523438 162.683594 119.898438 163.214844 Z M 125.59375 161.871094 C 129.753906 160.402344 133.949219 160.402344 138.113281 161.871094 C 138.863281 162.152344 139.363281 162.933594 139.363281 163.8125 C 139.332031 164.6875 138.796875 165.441406 138.050781 165.6875 C 137.453125 165.875 137.050781 166.441406 137.015625 167.097656 C 136.574219 172.777344 136.613281 178.480469 137.140625 184.152344 C 137.203125 184.902344 137.675781 185.53125 138.332031 185.71875 C 139.207031 186 139.800781 186.9375 139.707031 187.941406 C 139.644531 188.722656 139.140625 189.378906 138.488281 189.628906 C 134.136719 191.066406 129.847656 191.066406 125.5 189.660156 C 124.71875 189.378906 124.15625 188.535156 124.183594 187.59375 C 124.246094 186.65625 124.875 185.871094 125.6875 185.683594 C 126.40625 185.53125 126.972656 184.839844 127.035156 184.027344 C 127.410156 178.453125 127.378906 172.855469 126.9375 167.285156 C 126.878906 166.535156 126.375 165.875 125.6875 165.6875 C 124.875 165.5 124.28125 164.65625 124.3125 163.71875 C 124.34375 162.875 124.84375 162.121094 125.59375 161.871094 Z M 148.34375 160.964844 L 163.019531 160.964844 C 163.550781 160.554688 164.117188 160.402344 164.742188 160.460938 C 165.367188 160.496094 165.929688 160.777344 166.371094 161.277344 C 168.125 163.1875 169.09375 165.628906 169.1875 168.351562 C 169.246094 169.664062 168.5625 170.914062 167.433594 171.445312 C 166.339844 171.976562 165.054688 171.730469 164.179688 170.789062 C 163.300781 169.839844 162.617188 168.722656 162.175781 167.503906 C 162.015625 167.039062 161.535156 166.757812 161.050781 166.84375 C 160.578125 166.9375 160.234375 167.410156 160.234375 167.941406 L 160.296875 179.867188 C 160.328125 181.179688 160.390625 182.371094 160.546875 183.683594 C 160.640625 184.527344 161.265625 185.214844 162.019531 185.339844 C 162.769531 185.433594 163.394531 186.027344 163.585938 186.839844 C 163.773438 187.65625 163.523438 188.5 162.894531 189 C 162.132812 189.609375 161.226562 190.015625 160.265625 190.191406 C 157.347656 190.660156 154.382812 190.753906 151.441406 190.472656 C 150.21875 190.386719 149.042969 189.976562 148.03125 189.285156 C 147.28125 188.816406 146.90625 187.84375 147.089844 186.90625 C 147.3125 185.964844 148.03125 185.308594 148.90625 185.214844 C 149.628906 185.152344 150.21875 184.527344 150.316406 183.710938 C 150.75 179.488281 150.941406 175.640625 150.847656 171.351562 C 150.820312 170.1875 150.714844 169.027344 150.535156 167.878906 C 150.519531 167.476562 150.238281 167.128906 149.84375 167.035156 C 149.476562 166.941406 149.089844 167.105469 148.90625 167.441406 C 148.375 168.253906 147.875 168.976562 147.3125 169.753906 C 146.78125 170.414062 146.25 170.945312 145.558594 171.414062 C 144.804688 171.914062 143.898438 171.976562 143.117188 171.570312 C 142.304688 171.132812 141.753906 170.328125 141.648438 169.414062 C 141.519531 168.492188 141.582031 167.550781 141.835938 166.65625 C 142.460938 164.589844 143.429688 162.871094 144.804688 161.371094 C 145.746094 160.339844 147.25 160.183594 148.34375 160.964844 Z M 179.761719 173.421875 L 174.882812 167.128906 C 174.347656 166.371094 173.539062 165.84375 172.628906 165.65625 C 171.8125 165.441406 171.222656 164.65625 171.1875 163.71875 C 171.160156 162.8125 171.691406 161.964844 172.503906 161.714844 C 177.074219 160.273438 181.609375 160.308594 186.148438 161.777344 C 186.808594 162.027344 187.308594 162.621094 187.433594 163.34375 C 187.558594 164.09375 187.304688 164.84375 186.773438 165.3125 C 186.625 165.441406 186.523438 165.621094 186.492188 165.816406 C 186.460938 166.035156 186.460938 166.21875 186.554688 166.410156 C 187.023438 167.285156 187.496094 168.007812 188.058594 168.757812 C 188.214844 168.976562 188.433594 169.101562 188.683594 169.101562 C 188.933594 169.101562 189.152344 169.007812 189.308594 168.820312 C 189.925781 168.121094 190.453125 167.34375 190.875 166.503906 C 190.96875 166.324219 190.992188 166.109375 190.933594 165.910156 C 190.90625 165.691406 190.808594 165.503906 190.652344 165.410156 C 190.070312 164.945312 189.78125 164.203125 189.902344 163.46875 C 189.996094 162.71875 190.464844 162.125 191.089844 161.871094 C 194.066406 160.75 197.035156 160.589844 200.039062 161.46875 C 200.886719 161.71875 201.449219 162.59375 201.386719 163.53125 C 201.324219 164.472656 200.664062 165.253906 199.824219 165.378906 C 198.726562 165.535156 197.789062 166.101562 197.035156 167.039062 L 192.625 172.609375 C 191.738281 173.703125 191.234375 175.050781 191.1875 176.457031 C 191.121094 178.988281 191.246094 181.519531 191.5625 184.03125 C 191.65625 184.75 192.125 185.34375 192.722656 185.5 C 193.503906 185.6875 194.066406 186.40625 194.160156 187.253906 C 194.253906 188.097656 193.847656 188.914062 193.191406 189.320312 C 192.296875 189.828125 191.320312 190.179688 190.308594 190.351562 C 187.796875 190.785156 185.238281 190.859375 182.707031 190.574219 C 181.359375 190.417969 180.171875 189.980469 178.980469 189.226562 C 178.296875 188.789062 177.949219 187.945312 178.074219 187.097656 C 178.230469 186.253906 178.828125 185.597656 179.609375 185.472656 C 180.265625 185.378906 180.796875 184.78125 180.863281 184.0625 C 181.171875 181.683594 181.265625 179.460938 181.109375 177.054688 C 181.058594 175.730469 180.589844 174.457031 179.761719 173.421875 Z M 179.761719 173.421875 "/>
</g>
</svg>
